<svg xmlns="http://www.w3.org/2000/svg" xmlns:xlink="http://www.w3.org/1999/xlink" contentStyleType="text/css" data-diagram-type="CLASS" height="2092px" preserveAspectRatio="none" style="width:1214px;height:2092px;background:#FFFFFF;" version="1.1" viewBox="0 0 1214 2092" width="1214px" zoomAndPan="magnify"><defs/><g><!--class users--><g id="elem_users"><rect codeLine="8" fill="#F1F1F1" height="243.7813" id="users" rx="2.5" ry="2.5" style="stroke:#181818;stroke-width:0.5;" width="313.0527" x="31" y="898.5"/><ellipse cx="154.3613" cy="921.6484" fill="#ADD1B2" rx="11" ry="11" style="stroke:#181818;stroke-width:1;"/><path d="M158.4707,927.6484 L150.752,927.6484 L150.752,915.2578 L158.4707,915.2578 L158.4707,917.4141 L153.2051,917.4141 L153.2051,920.0859 L157.9707,920.0859 L157.9707,922.2422 L153.2051,922.2422 L153.2051,925.4922 L158.4707,925.4922 L158.4707,927.6484 Z " fill="#000000"/><text fill="#000000" font-family="sans-serif" font-size="14" lengthAdjust="spacing" textLength="37.8301" x="184.8613" y="926.4951">users</text><line style="stroke:#181818;stroke-width:0.5;" x1="32" x2="343.0527" y1="944.7969" y2="944.7969"/><ellipse cx="42" cy="968.4453" fill="#000000" rx="3" ry="3" style="stroke:#000000;stroke-width:1;"/><text fill="#000000" font-family="sans-serif" font-size="14" lengthAdjust="spacing" textLength="120.0801" x="61" y="971.792">user_id : INT (PK)</text><line style="stroke:#181818;stroke-width:1;" x1="32" x2="343.0527" y1="989.0938" y2="989.0938"/><text fill="#000000" font-family="sans-serif" font-size="14" lengthAdjust="spacing" textLength="159.4551" x="47" y="1016.0889">name : VARCHAR(255)</text><text fill="#000000" font-family="sans-serif" font-size="14" lengthAdjust="spacing" textLength="281.0527" x="47" y="1052.3857">phone_number : VARCHAR(20) (Unique)</text><text fill="#000000" font-family="sans-serif" font-size="14" lengthAdjust="spacing" textLength="223.1182" x="47" y="1088.6826">email : VARCHAR(255) (Unique)</text><text fill="#000000" font-family="sans-serif" font-size="14" lengthAdjust="spacing" textLength="169.4629" x="47" y="1124.9795">created_at : TIMESTAMP</text></g><!--class contacts--><g id="elem_contacts"><rect codeLine="17" fill="#F1F1F1" height="134.8906" id="contacts" rx="2.5" ry="2.5" style="stroke:#181818;stroke-width:0.5;" width="187.5449" x="566.5" y="7"/><ellipse cx="616.1802" cy="30.1484" fill="#ADD1B2" rx="11" ry="11" style="stroke:#181818;stroke-width:1;"/><path d="M620.2896,36.1484 L612.5708,36.1484 L612.5708,23.7578 L620.2896,23.7578 L620.2896,25.9141 L615.0239,25.9141 L615.0239,28.5859 L619.7896,28.5859 L619.7896,30.7422 L615.0239,30.7422 L615.0239,33.9922 L620.2896,33.9922 L620.2896,36.1484 Z " fill="#000000"/><text fill="#000000" font-family="sans-serif" font-size="14" lengthAdjust="spacing" textLength="59.6846" x="646.6802" y="34.9951">contacts</text><line style="stroke:#181818;stroke-width:0.5;" x1="567.5" x2="753.0449" y1="53.2969" y2="53.2969"/><line style="stroke:#181818;stroke-width:0.5;" x1="567.5" x2="753.0449" y1="61.2969" y2="61.2969"/><ellipse cx="577.5" cy="84.9453" fill="#000000" rx="3" ry="3" style="stroke:#000000;stroke-width:1;"/><text fill="#000000" font-family="sans-serif" font-size="14" lengthAdjust="spacing" textLength="119.6904" x="596.5" y="88.292">user_id : INT (FK)</text><ellipse cx="577.5" cy="121.2422" fill="#000000" rx="3" ry="3" style="stroke:#000000;stroke-width:1;"/><text fill="#000000" font-family="sans-serif" font-size="14" lengthAdjust="spacing" textLength="141.5449" x="596.5" y="124.5889">contact_id : INT (FK)</text></g><!--class chats--><g id="elem_chats"><rect codeLine="22" fill="#F1F1F1" height="243.7813" id="chats" rx="2.5" ry="2.5" style="stroke:#181818;stroke-width:0.5;" width="178.3779" x="571.5" y="242.5"/><ellipse cx="627.4727" cy="265.6484" fill="#ADD1B2" rx="11" ry="11" style="stroke:#181818;stroke-width:1;"/><path d="M631.582,271.6484 L623.8633,271.6484 L623.8633,259.2578 L631.582,259.2578 L631.582,261.4141 L626.3164,261.4141 L626.3164,264.0859 L631.082,264.0859 L631.082,266.2422 L626.3164,266.2422 L626.3164,269.4922 L631.582,269.4922 L631.582,271.6484 Z " fill="#000000"/><text fill="#000000" font-family="sans-serif" font-size="14" lengthAdjust="spacing" textLength="37.9326" x="657.9727" y="270.4951">chats</text><line style="stroke:#181818;stroke-width:0.5;" x1="572.5" x2="748.8779" y1="288.7969" y2="288.7969"/><ellipse cx="582.5" cy="312.4453" fill="#000000" rx="3" ry="3" style="stroke:#000000;stroke-width:1;"/><text fill="#000000" font-family="sans-serif" font-size="14" lengthAdjust="spacing" textLength="120.1826" x="601.5" y="315.792">chat_id : INT (PK)</text><line style="stroke:#181818;stroke-width:1;" x1="572.5" x2="748.8779" y1="333.0938" y2="333.0938"/><text fill="#000000" font-family="sans-serif" font-size="14" lengthAdjust="spacing" textLength="137.1904" x="587.5" y="360.0889">sender_id : INT (FK)</text><text fill="#000000" font-family="sans-serif" font-size="14" lengthAdjust="spacing" textLength="146.3779" x="587.5" y="396.3857">receiver_id : INT (FK)</text><text fill="#000000" font-family="sans-serif" font-size="14" lengthAdjust="spacing" textLength="112.0752" x="587.5" y="432.6826">message : TEXT</text><text fill="#000000" font-family="sans-serif" font-size="14" lengthAdjust="spacing" textLength="146.0977" x="587.5" y="468.9795">sent_at : TIMESTAMP</text></g><!--class groups--><g id="elem_groups"><rect codeLine="31" fill="#F1F1F1" height="207.4844" id="groups" rx="2.5" ry="2.5" style="stroke:#181818;stroke-width:0.5;" width="239.4229" x="541" y="789"/><ellipse cx="622.3306" cy="812.1484" fill="#ADD1B2" rx="11" ry="11" style="stroke:#181818;stroke-width:1;"/><path d="M626.4399,818.1484 L618.7212,818.1484 L618.7212,805.7578 L626.4399,805.7578 L626.4399,807.9141 L621.1743,807.9141 L621.1743,810.5859 L625.9399,810.5859 L625.9399,812.7422 L621.1743,812.7422 L621.1743,815.9922 L626.4399,815.9922 L626.4399,818.1484 Z " fill="#000000"/><text fill="#000000" font-family="sans-serif" font-size="14" lengthAdjust="spacing" textLength="48.2617" x="652.8306" y="816.9951">groups</text><line style="stroke:#181818;stroke-width:0.5;" x1="542" x2="779.4229" y1="835.2969" y2="835.2969"/><ellipse cx="552" cy="858.9453" fill="#000000" rx="3" ry="3" style="stroke:#000000;stroke-width:1;"/><text fill="#000000" font-family="sans-serif" font-size="14" lengthAdjust="spacing" textLength="130.5117" x="571" y="862.292">group_id : INT (PK)</text><line style="stroke:#181818;stroke-width:1;" x1="542" x2="779.4229" y1="879.5938" y2="879.5938"/><text fill="#000000" font-family="sans-serif" font-size="14" lengthAdjust="spacing" textLength="207.4229" x="557" y="906.5889">group_name : VARCHAR(255)</text><text fill="#000000" font-family="sans-serif" font-size="14" lengthAdjust="spacing" textLength="147.1846" x="557" y="942.8857">created_by : INT (FK)</text><text fill="#000000" font-family="sans-serif" font-size="14" lengthAdjust="spacing" textLength="169.4629" x="557" y="979.1826">created_at : TIMESTAMP</text></g><!--class group_members--><g id="elem_group_members"><rect codeLine="39" fill="#F1F1F1" height="171.1875" id="group_members" rx="2.5" ry="2.5" style="stroke:#181818;stroke-width:0.5;" width="190.5459" x="997" y="603"/><ellipse cx="1022.8628" cy="626.1484" fill="#ADD1B2" rx="11" ry="11" style="stroke:#181818;stroke-width:1;"/><path d="M1026.9722,632.1484 L1019.2535,632.1484 L1019.2535,619.7578 L1026.9722,619.7578 L1026.9722,621.9141 L1021.7066,621.9141 L1021.7066,624.5859 L1026.4722,624.5859 L1026.4722,626.7422 L1021.7066,626.7422 L1021.7066,629.9922 L1026.9722,629.9922 L1026.9722,632.1484 Z " fill="#000000"/><text fill="#000000" font-family="sans-serif" font-size="14" lengthAdjust="spacing" textLength="114.4063" x="1049.2768" y="630.9951">group_members</text><line style="stroke:#181818;stroke-width:0.5;" x1="998" x2="1186.5459" y1="649.2969" y2="649.2969"/><text fill="#000000" font-family="sans-serif" font-size="14" lengthAdjust="spacing" textLength="158.5459" x="1013" y="676.292">joined_at : TIMESTAMP</text><line style="stroke:#181818;stroke-width:0.5;" x1="998" x2="1186.5459" y1="693.5938" y2="693.5938"/><ellipse cx="1008" cy="717.2422" fill="#000000" rx="3" ry="3" style="stroke:#000000;stroke-width:1;"/><text fill="#000000" font-family="sans-serif" font-size="14" lengthAdjust="spacing" textLength="130.1221" x="1027" y="720.5889">group_id : INT (FK)</text><ellipse cx="1008" cy="753.5391" fill="#000000" rx="3" ry="3" style="stroke:#000000;stroke-width:1;"/><text fill="#000000" font-family="sans-serif" font-size="14" lengthAdjust="spacing" textLength="119.6904" x="1027" y="756.8857">user_id : INT (FK)</text></g><!--class group_messages--><g id="elem_group_messages"><rect codeLine="45" fill="#F1F1F1" height="243.7813" id="group_messages" rx="2.5" ry="2.5" style="stroke:#181818;stroke-width:0.5;" width="198.4619" x="993.5" y="975.5"/><ellipse cx="1021.227" cy="998.6484" fill="#ADD1B2" rx="11" ry="11" style="stroke:#181818;stroke-width:1;"/><path d="M1025.3364,1004.6484 L1017.6176,1004.6484 L1017.6176,992.2578 L1025.3364,992.2578 L1025.3364,994.4141 L1020.0708,994.4141 L1020.0708,997.0859 L1024.8364,997.0859 L1024.8364,999.2422 L1020.0708,999.2422 L1020.0708,1002.4922 L1025.3364,1002.4922 L1025.3364,1004.6484 Z " fill="#000000"/><text fill="#000000" font-family="sans-serif" font-size="14" lengthAdjust="spacing" textLength="118.1797" x="1048.0552" y="1003.4951">group_messages</text><line style="stroke:#181818;stroke-width:0.5;" x1="994.5" x2="1190.9619" y1="1021.7969" y2="1021.7969"/><ellipse cx="1004.5" cy="1045.4453" fill="#000000" rx="3" ry="3" style="stroke:#000000;stroke-width:1;"/><text fill="#000000" font-family="sans-serif" font-size="14" lengthAdjust="spacing" textLength="152.4619" x="1023.5" y="1048.792">message_id : INT (PK)</text><line style="stroke:#181818;stroke-width:1;" x1="994.5" x2="1190.9619" y1="1066.0938" y2="1066.0938"/><text fill="#000000" font-family="sans-serif" font-size="14" lengthAdjust="spacing" textLength="130.1221" x="1009.5" y="1093.0889">group_id : INT (FK)</text><text fill="#000000" font-family="sans-serif" font-size="14" lengthAdjust="spacing" textLength="137.1904" x="1009.5" y="1129.3857">sender_id : INT (FK)</text><text fill="#000000" font-family="sans-serif" font-size="14" lengthAdjust="spacing" textLength="112.0752" x="1009.5" y="1165.6826">message : TEXT</text><text fill="#000000" font-family="sans-serif" font-size="14" lengthAdjust="spacing" textLength="146.0977" x="1009.5" y="1201.9795">sent_at : TIMESTAMP</text></g><!--class calls--><g id="elem_calls"><rect codeLine="54" fill="#F1F1F1" height="280.0781" id="calls" rx="2.5" ry="2.5" style="stroke:#181818;stroke-width:0.5;" width="264.1348" x="528.5" y="1298.5"/><ellipse cx="630.6426" cy="1321.6484" fill="#ADD1B2" rx="11" ry="11" style="stroke:#181818;stroke-width:1;"/><path d="M634.752,1327.6484 L627.0332,1327.6484 L627.0332,1315.2578 L634.752,1315.2578 L634.752,1317.4141 L629.4863,1317.4141 L629.4863,1320.0859 L634.252,1320.0859 L634.252,1322.2422 L629.4863,1322.2422 L629.4863,1325.4922 L634.752,1325.4922 L634.752,1327.6484 Z " fill="#000000"/><text fill="#000000" font-family="sans-serif" font-size="14" lengthAdjust="spacing" textLength="31.3496" x="661.1426" y="1326.4951">calls</text><line style="stroke:#181818;stroke-width:0.5;" x1="529.5" x2="791.6348" y1="1344.7969" y2="1344.7969"/><ellipse cx="539.5" cy="1368.4453" fill="#000000" rx="3" ry="3" style="stroke:#000000;stroke-width:1;"/><text fill="#000000" font-family="sans-serif" font-size="14" lengthAdjust="spacing" textLength="113.5996" x="558.5" y="1371.792">call_id : INT (PK)</text><line style="stroke:#181818;stroke-width:1;" x1="529.5" x2="791.6348" y1="1389.0938" y2="1389.0938"/><text fill="#000000" font-family="sans-serif" font-size="14" lengthAdjust="spacing" textLength="127.5791" x="544.5" y="1416.0889">caller_id : INT (FK)</text><text fill="#000000" font-family="sans-serif" font-size="14" lengthAdjust="spacing" textLength="146.3779" x="544.5" y="1452.3857">receiver_id : INT (FK)</text><text fill="#000000" font-family="sans-serif" font-size="14" lengthAdjust="spacing" textLength="232.1348" x="544.5" y="1488.6826">call_type : ENUM('Audio', 'Video')</text><text fill="#000000" font-family="sans-serif" font-size="14" lengthAdjust="spacing" textLength="95.6826" x="544.5" y="1524.9795">duration : INT</text><text fill="#000000" font-family="sans-serif" font-size="14" lengthAdjust="spacing" textLength="165.9355" x="544.5" y="1561.2764">started_at : TIMESTAMP</text></g><!--class media--><g id="elem_media"><rect codeLine="64" fill="#F1F1F1" height="280.0781" id="media" rx="2.5" ry="2.5" style="stroke:#181818;stroke-width:0.5;" width="433.2559" x="444" y="1678.5"/><ellipse cx="624.5747" cy="1701.6484" fill="#ADD1B2" rx="11" ry="11" style="stroke:#181818;stroke-width:1;"/><path d="M628.6841,1707.6484 L620.9653,1707.6484 L620.9653,1695.2578 L628.6841,1695.2578 L628.6841,1697.4141 L623.4185,1697.4141 L623.4185,1700.0859 L628.1841,1700.0859 L628.1841,1702.2422 L623.4185,1702.2422 L623.4185,1705.4922 L628.6841,1705.4922 L628.6841,1707.6484 Z " fill="#000000"/><text fill="#000000" font-family="sans-serif" font-size="14" lengthAdjust="spacing" textLength="43.6064" x="655.0747" y="1706.4951">media</text><line style="stroke:#181818;stroke-width:0.5;" x1="445" x2="876.2559" y1="1724.7969" y2="1724.7969"/><ellipse cx="455" cy="1748.4453" fill="#000000" rx="3" ry="3" style="stroke:#000000;stroke-width:1;"/><text fill="#000000" font-family="sans-serif" font-size="14" lengthAdjust="spacing" textLength="133.1504" x="474" y="1751.792">media_id : INT (PK)</text><line style="stroke:#181818;stroke-width:1;" x1="445" x2="876.2559" y1="1769.0938" y2="1769.0938"/><text fill="#000000" font-family="sans-serif" font-size="14" lengthAdjust="spacing" textLength="137.1904" x="460" y="1796.0889">sender_id : INT (FK)</text><text fill="#000000" font-family="sans-serif" font-size="14" lengthAdjust="spacing" textLength="146.3779" x="460" y="1832.3857">receiver_id : INT (FK)</text><text fill="#000000" font-family="sans-serif" font-size="14" lengthAdjust="spacing" textLength="401.2559" x="460" y="1868.6826">media_type : ENUM('Image', 'Video', 'Audio', 'Document')</text><text fill="#000000" font-family="sans-serif" font-size="14" lengthAdjust="spacing" textLength="179.9014" x="460" y="1904.9795">file_path : VARCHAR(255)</text><text fill="#000000" font-family="sans-serif" font-size="14" lengthAdjust="spacing" textLength="181.0088" x="460" y="1941.2764">uploaded_at : TIMESTAMP</text></g><!--class status_updates--><g id="elem_status_updates"><rect codeLine="74" fill="#F1F1F1" height="243.7813" id="status_updates" rx="2.5" ry="2.5" style="stroke:#181818;stroke-width:0.5;" width="230.7549" x="977" y="1841.5"/><ellipse cx="1024.8071" cy="1864.6484" fill="#ADD1B2" rx="11" ry="11" style="stroke:#181818;stroke-width:1;"/><path d="M1028.9165,1870.6484 L1021.1978,1870.6484 L1021.1978,1858.2578 L1028.9165,1858.2578 L1028.9165,1860.4141 L1023.6509,1860.4141 L1023.6509,1863.0859 L1028.4165,1863.0859 L1028.4165,1865.2422 L1023.6509,1865.2422 L1023.6509,1868.4922 L1028.9165,1868.4922 L1028.9165,1870.6484 Z " fill="#000000"/><text fill="#000000" font-family="sans-serif" font-size="14" lengthAdjust="spacing" textLength="106.6406" x="1055.3071" y="1869.4951">status_updates</text><line style="stroke:#181818;stroke-width:0.5;" x1="978" x2="1206.7549" y1="1887.7969" y2="1887.7969"/><ellipse cx="988" cy="1911.4453" fill="#000000" rx="3" ry="3" style="stroke:#000000;stroke-width:1;"/><text fill="#000000" font-family="sans-serif" font-size="14" lengthAdjust="spacing" textLength="132.5625" x="1007" y="1914.792">status_id : INT (PK)</text><line style="stroke:#181818;stroke-width:1;" x1="978" x2="1206.7549" y1="1932.0938" y2="1932.0938"/><text fill="#000000" font-family="sans-serif" font-size="14" lengthAdjust="spacing" textLength="119.6904" x="993" y="1959.0889">user_id : INT (FK)</text><text fill="#000000" font-family="sans-serif" font-size="14" lengthAdjust="spacing" textLength="127.0527" x="993" y="1995.3857">status_text : TEXT</text><text fill="#000000" font-family="sans-serif" font-size="14" lengthAdjust="spacing" textLength="198.7549" x="993" y="2031.6826">media_id : INT (FK, Nullable)</text><text fill="#000000" font-family="sans-serif" font-size="14" lengthAdjust="spacing" textLength="163.5635" x="993" y="2067.9795">posted_at : TIMESTAMP</text></g><!--link users to contacts--><g id="link_users_contacts"><path codeLine="84" d="M110,890.28 C110,634.55 110,74.5 110,74.5 C110,74.5 401.26,74.5 558.49,74.5 " fill="transparent" id="users-contacts" style="stroke:#181818;stroke-width:1;"/><line style="stroke:#181818;stroke-width:1;" x1="114" x2="106" y1="894.28" y2="894.28"/><line style="stroke:#181818;stroke-width:1;" x1="114" x2="106" y1="891.28" y2="891.28"/><line style="stroke:#181818;stroke-width:1;" x1="110" x2="110" y1="890.28" y2="898.28"/><line style="stroke:#181818;stroke-width:1;" x1="558.49" x2="566.49" y1="74.5" y2="68.5"/><line style="stroke:#181818;stroke-width:1;" x1="558.49" x2="566.49" y1="74.5" y2="80.5"/><line style="stroke:#181818;stroke-width:1;" x1="558.49" x2="566.49" y1="74.5" y2="74.5"/><line style="stroke:#181818;stroke-width:1;" x1="556.49" x2="556.49" y1="70.5" y2="78.5"/><text fill="#000000" font-family="sans-serif" font-size="13" lengthAdjust="spacing" textLength="82.5322" x="17" y="281.2069">has contacts</text></g><!--link users to chats--><g id="link_users_chats"><path codeLine="85" d="M188,890.27 C188,700.47 188,364.5 188,364.5 C188,364.5 416.42,364.5 553.35,364.5 " fill="transparent" id="users-chats" style="stroke:#181818;stroke-width:1;"/><line style="stroke:#181818;stroke-width:1;" x1="192" x2="184" y1="894.27" y2="894.27"/><line style="stroke:#181818;stroke-width:1;" x1="192" x2="184" y1="891.27" y2="891.27"/><line style="stroke:#181818;stroke-width:1;" x1="188" x2="188" y1="890.27" y2="898.27"/><line style="stroke:#181818;stroke-width:1;" x1="563.35" x2="571.35" y1="364.5" y2="358.5"/><line style="stroke:#181818;stroke-width:1;" x1="563.35" x2="571.35" y1="364.5" y2="370.5"/><line style="stroke:#181818;stroke-width:1;" x1="563.35" x2="571.35" y1="364.5" y2="364.5"/><ellipse cx="557.35" cy="364.5" fill="transparent" rx="4" ry="4" style="stroke:#181818;stroke-width:1;"/><text fill="#000000" font-family="sans-serif" font-size="13" lengthAdjust="spacing" textLength="107.3643" x="70" y="462.7769">sends messages</text></g><!--link users to calls--><g id="link_users_calls"><path codeLine="86" d="M352.22,1083.9 C444.38,1083.9 535,1083.9 535,1083.9 C535,1083.9 535,1181.24 535,1280.35 " fill="transparent" id="users-calls" style="stroke:#181818;stroke-width:1;"/><line style="stroke:#181818;stroke-width:1;" x1="348.22" x2="348.22" y1="1087.9" y2="1079.9"/><line style="stroke:#181818;stroke-width:1;" x1="351.22" x2="351.22" y1="1087.9" y2="1079.9"/><line style="stroke:#181818;stroke-width:1;" x1="352.22" x2="344.22" y1="1083.9" y2="1083.9"/><line style="stroke:#181818;stroke-width:1;" x1="535" x2="541" y1="1290.35" y2="1298.35"/><line style="stroke:#181818;stroke-width:1;" x1="535" x2="529" y1="1290.35" y2="1298.35"/><line style="stroke:#181818;stroke-width:1;" x1="535" x2="535" y1="1290.35" y2="1298.35"/><ellipse cx="535" cy="1284.35" fill="transparent" rx="4" ry="4" style="stroke:#181818;stroke-width:1;"/><text fill="#000000" font-family="sans-serif" font-size="13" lengthAdjust="spacing" textLength="76.1719" x="448" y="1118.8069">makes calls</text></g><!--link users to media--><g id="link_users_media"><path codeLine="87" d="M352.27,1113.2 C424.73,1113.2 487,1113.2 487,1113.2 C487,1113.2 487,1454.63 487,1660.31 " fill="transparent" id="users-media" style="stroke:#181818;stroke-width:1;"/><line style="stroke:#181818;stroke-width:1;" x1="348.27" x2="348.27" y1="1117.2" y2="1109.2"/><line style="stroke:#181818;stroke-width:1;" x1="351.27" x2="351.27" y1="1117.2" y2="1109.2"/><line style="stroke:#181818;stroke-width:1;" x1="352.27" x2="344.27" y1="1113.2" y2="1113.2"/><line style="stroke:#181818;stroke-width:1;" x1="487" x2="493" y1="1670.31" y2="1678.31"/><line style="stroke:#181818;stroke-width:1;" x1="487" x2="481" y1="1670.31" y2="1678.31"/><line style="stroke:#181818;stroke-width:1;" x1="487" x2="487" y1="1670.31" y2="1678.31"/><ellipse cx="487" cy="1664.31" fill="transparent" rx="4" ry="4" style="stroke:#181818;stroke-width:1;"/><text fill="#000000" font-family="sans-serif" font-size="13" lengthAdjust="spacing" textLength="87.7183" x="389" y="1347.4569">shares media</text></g><!--link users to status_updates--><g id="link_users_status_updates"><path codeLine="88" d="M352.31,1054.6 C584.85,1054.6 986,1054.6 986,1054.6 C986,1054.6 986,1575.51 986,1823.39 " fill="transparent" id="users-status_updates" style="stroke:#181818;stroke-width:1;"/><line style="stroke:#181818;stroke-width:1;" x1="348.31" x2="348.31" y1="1058.6" y2="1050.6"/><line style="stroke:#181818;stroke-width:1;" x1="351.31" x2="351.31" y1="1058.6" y2="1050.6"/><line style="stroke:#181818;stroke-width:1;" x1="352.31" x2="344.31" y1="1054.6" y2="1054.6"/><line style="stroke:#181818;stroke-width:1;" x1="986" x2="992" y1="1833.39" y2="1841.39"/><line style="stroke:#181818;stroke-width:1;" x1="986" x2="980" y1="1833.39" y2="1841.39"/><line style="stroke:#181818;stroke-width:1;" x1="986" x2="986" y1="1833.39" y2="1841.39"/><ellipse cx="986" cy="1827.39" fill="transparent" rx="4" ry="4" style="stroke:#181818;stroke-width:1;"/><text fill="#000000" font-family="sans-serif" font-size="13" lengthAdjust="spacing" textLength="78.9268" x="897" y="1150.2169">posts status</text></g><!--link users to groups--><g id="link_users_groups"><path codeLine="90" d="M352.02,947.25 C416.17,947.25 463.23,947.25 522.98,947.25 " fill="transparent" id="users-groups" style="stroke:#181818;stroke-width:1;"/><line style="stroke:#181818;stroke-width:1;" x1="348.02" x2="348.02" y1="951.25" y2="943.25"/><line style="stroke:#181818;stroke-width:1;" x1="351.02" x2="351.02" y1="951.25" y2="943.25"/><line style="stroke:#181818;stroke-width:1;" x1="352.02" x2="344.02" y1="947.25" y2="947.25"/><line style="stroke:#181818;stroke-width:1;" x1="532.98" x2="540.98" y1="947.25" y2="941.25"/><line style="stroke:#181818;stroke-width:1;" x1="532.98" x2="540.98" y1="947.25" y2="953.25"/><line style="stroke:#181818;stroke-width:1;" x1="532.98" x2="540.98" y1="947.25" y2="947.25"/><ellipse cx="526.98" cy="947.25" fill="transparent" rx="4" ry="4" style="stroke:#181818;stroke-width:1;"/><text fill="#000000" font-family="sans-serif" font-size="13" lengthAdjust="spacing" textLength="48.3247" x="383.5" y="970.3169">creates</text></g><!--link users to group_members--><g id="link_users_group_members"><path codeLine="91" d="M266,890.45 C266,785.87 266,660 266,660 C266,660 771.32,660 988.88,660 " fill="transparent" id="users-group_members" style="stroke:#181818;stroke-width:1;"/><line style="stroke:#181818;stroke-width:1;" x1="270" x2="262" y1="894.45" y2="894.45"/><line style="stroke:#181818;stroke-width:1;" x1="270" x2="262" y1="891.45" y2="891.45"/><line style="stroke:#181818;stroke-width:1;" x1="266" x2="266" y1="890.45" y2="898.45"/><line style="stroke:#181818;stroke-width:1;" x1="988.88" x2="996.88" y1="660" y2="654"/><line style="stroke:#181818;stroke-width:1;" x1="988.88" x2="996.88" y1="660" y2="666"/><line style="stroke:#181818;stroke-width:1;" x1="988.88" x2="996.88" y1="660" y2="660"/><line style="stroke:#181818;stroke-width:1;" x1="986.88" x2="986.88" y1="656" y2="664"/><text fill="#000000" font-family="sans-serif" font-size="13" lengthAdjust="spacing" textLength="98.1982" x="403.22" y="683.0669">is a member of</text></g><!--link users to group_messages--><g id="link_users_group_messages"><path codeLine="92" d="M352.11,1025.3 C538.66,1025.3 818.69,1025.3 975.34,1025.3 " fill="transparent" id="users-group_messages" style="stroke:#181818;stroke-width:1;"/><line style="stroke:#181818;stroke-width:1;" x1="348.11" x2="348.11" y1="1029.3" y2="1021.3"/><line style="stroke:#181818;stroke-width:1;" x1="351.11" x2="351.11" y1="1029.3" y2="1021.3"/><line style="stroke:#181818;stroke-width:1;" x1="352.11" x2="344.11" y1="1025.3" y2="1025.3"/><line style="stroke:#181818;stroke-width:1;" x1="985.34" x2="993.34" y1="1025.3" y2="1019.3"/><line style="stroke:#181818;stroke-width:1;" x1="985.34" x2="993.34" y1="1025.3" y2="1031.3"/><line style="stroke:#181818;stroke-width:1;" x1="985.34" x2="993.34" y1="1025.3" y2="1025.3"/><ellipse cx="979.34" cy="1025.3" fill="transparent" rx="4" ry="4" style="stroke:#181818;stroke-width:1;"/><text fill="#000000" font-family="sans-serif" font-size="13" lengthAdjust="spacing" textLength="123.3477" x="534.72" y="1048.3669">sends messages in</text></g><!--link groups to group_members--><g id="link_groups_group_members"><path codeLine="94" d="M768,780.89 C768,742.89 768,717 768,717 C768,717 893.17,717 988.89,717 " fill="transparent" id="groups-group_members" style="stroke:#181818;stroke-width:1;"/><line style="stroke:#181818;stroke-width:1;" x1="772" x2="764" y1="784.89" y2="784.89"/><line style="stroke:#181818;stroke-width:1;" x1="772" x2="764" y1="781.89" y2="781.89"/><line style="stroke:#181818;stroke-width:1;" x1="768" x2="768" y1="780.89" y2="788.89"/><line style="stroke:#181818;stroke-width:1;" x1="988.89" x2="996.89" y1="717" y2="711"/><line style="stroke:#181818;stroke-width:1;" x1="988.89" x2="996.89" y1="717" y2="723"/><line style="stroke:#181818;stroke-width:1;" x1="988.89" x2="996.89" y1="717" y2="717"/><line style="stroke:#181818;stroke-width:1;" x1="986.89" x2="986.89" y1="713" y2="721"/><text fill="#000000" font-family="sans-serif" font-size="13" lengthAdjust="spacing" textLength="88.8037" x="747.5" y="740.0669">has members</text></g><!--link groups to group_messages--><g id="link_groups_group_messages"><path codeLine="95" d="M788.26,985.75 C855.31,985.75 911.9,985.75 975.3,985.75 " fill="transparent" id="groups-group_messages" style="stroke:#181818;stroke-width:1;"/><line style="stroke:#181818;stroke-width:1;" x1="784.26" x2="784.26" y1="989.75" y2="981.75"/><line style="stroke:#181818;stroke-width:1;" x1="787.26" x2="787.26" y1="989.75" y2="981.75"/><line style="stroke:#181818;stroke-width:1;" x1="788.26" x2="780.26" y1="985.75" y2="985.75"/><line style="stroke:#181818;stroke-width:1;" x1="985.3" x2="993.3" y1="985.75" y2="979.75"/><line style="stroke:#181818;stroke-width:1;" x1="985.3" x2="993.3" y1="985.75" y2="991.75"/><line style="stroke:#181818;stroke-width:1;" x1="985.3" x2="993.3" y1="985.75" y2="985.75"/><ellipse cx="979.3" cy="985.75" fill="transparent" rx="4" ry="4" style="stroke:#181818;stroke-width:1;"/><text fill="#000000" font-family="sans-serif" font-size="13" lengthAdjust="spacing" textLength="123.8936" x="752.78" y="1008.8169">receives messages</text></g><!--link media to status_updates--><g id="link_media_status_updates"><path codeLine="97" d="M885.13,1900 C919.55,1900 927.95,1900 958.83,1900 " fill="transparent" id="media-status_updates" style="stroke:#181818;stroke-width:1;"/><line style="stroke:#181818;stroke-width:1;" x1="881.13" x2="881.13" y1="1904" y2="1896"/><line style="stroke:#181818;stroke-width:1;" x1="884.13" x2="884.13" y1="1904" y2="1896"/><line style="stroke:#181818;stroke-width:1;" x1="885.13" x2="877.13" y1="1900" y2="1900"/><line style="stroke:#181818;stroke-width:1;" x1="968.83" x2="976.83" y1="1900" y2="1894"/><line style="stroke:#181818;stroke-width:1;" x1="968.83" x2="976.83" y1="1900" y2="1906"/><line style="stroke:#181818;stroke-width:1;" x1="968.83" x2="976.83" y1="1900" y2="1900"/><ellipse cx="962.83" cy="1900" fill="transparent" rx="4" ry="4" style="stroke:#181818;stroke-width:1;"/><text fill="#000000" font-family="sans-serif" font-size="13" lengthAdjust="spacing" textLength="91.3237" x="937.98" y="1923.0669">used in status</text></g><!--SRC=[hLHDRzim3BtxLmYv92qQe1lGIs_1cc91aQ38qcAtGB6OM8ijUP8yB4ZstqTPyaSSgrs1vHAJV2OV7scci3N4IABuBZ64SGMnuL94Uiz5JXNDICe5c4CEH2gJo5OWfunniIEVRbjEHSLUGuxEjbT81fKt6f87s69ICXM66muw0ljm88K6fSan8lYxjiQQCt9FPeiL6Jq_NPN-yRZy4pG33BrEbb- -JfQZptTtBfmdKi1Q5Da6L3j-UqL6BuB_BC3X8ACyxIGuHyGAg06sfWPXgzby-cqrcJz7VwAARIo5eR494NxqXAyzhXDgvKbeayGQuQur2DPR1AS6_5TlA0EjwSwAjPf-NrLfJBYldP95NXCghJ0Z5mvDez9mS-YoUbTTbpW3EyWWcLhZWFO_9AxPFnGf5QghUFkzfY_B1SVpuHd4D4sRdK0ZJCP6FxeJPSRocxudqyNBV3IS58pBuGqPld86SkXWh53K7WFtkgDjg7fpRXamJXibqVZVwsnJdd6VPQXjmnqVwcuUP5naoCmtjEKfh7DgahvbBV9KKlPMRzYyAVIwo1dkRZqUxmrs6TXD_vg1twQz5rt97fzkoA98Kxf9_M7AfUwVG7rNbv2MSzC9ptNahkhfD1wVZitHkYU3XEhQ7hHWykXl4cBiY7IrlnUeSaiHbT4zwb6Q7OXR1vieeGgqipkOZgm8jYrgxnz4vsX_dX3bRiXPnTEnSpWGnZMXnDb4RWSzsPeBSD4nuG89-9gX2bP8RmxQsDxyVhVReaPEfQ0So9WXaKgGlm00]--></g></svg>